<svg width="16" height="16" viewBox="0 0 16 16" fill="none" xmlns="http://www.w3.org/2000/svg">
<path fill-rule="evenodd" clip-rule="evenodd" d="M1.0625 0.0332085C0.801531 0.0908648 0.596469 0.203927 0.402344 0.397209C0.0469375 0.751052 0 0.935896 0 1.98221V2.77252H3.68909H7.37816L7.24009 2.57721C7.16416 2.4698 6.90125 1.99518 6.65581 1.52252C6.41041 1.04986 6.16256 0.598146 6.10506 0.518708C5.98444 0.35199 5.74506 0.177427 5.49928 0.0768961C5.32856 0.0070836 5.323 0.00689604 3.28125 0.00105229C1.77119 -0.00322896 1.18931 0.00517727 1.0625 0.0332085ZM0.000375 8.06158C0.0006875 11.9047 0.00853125 12.8174 0.0424687 12.9444C0.168594 13.4166 0.542344 13.7916 1.01094 13.9164C1.12076 13.9457 4.01033 13.9615 7.13406 13.964C7.08008 13.8688 7.0437 13.8014 7.03455 13.7786C7.00236 13.6984 6.9952 13.6451 7.00275 13.5419C7.01948 13.3133 7.07525 13.2373 7.50554 12.8566L7.88026 12.5251L7.86507 12.4057C7.84547 12.2517 7.84547 11.7539 7.86507 11.5998L7.88026 11.4804L7.50193 11.1453C7.04492 10.7406 7.00738 10.6854 7.00783 10.4186C7.00791 10.3754 7.00627 10.3452 7.00904 10.3154C7.01894 10.2087 7.08525 10.1073 7.48817 9.44064C7.89488 8.76771 7.95672 8.69189 8.15707 8.62038C8.35178 8.55089 8.45612 8.56331 8.96846 8.71698C9.21949 8.79228 9.4361 8.85389 9.44982 8.85389C9.46356 8.85389 9.57683 8.78807 9.70159 8.70765C9.87512 8.5958 10.1879 8.43307 10.4146 8.3367C10.4166 8.33584 10.4659 8.13281 10.5242 7.88553C10.5824 7.63823 10.6426 7.4073 10.6579 7.37233C10.7242 7.22062 10.8768 7.08897 11.0569 7.02805C11.1366 7.00111 11.2684 6.99748 12.0307 7.00125L12.9123 7.00561L13.0148 7.05404C13.1435 7.11485 13.2834 7.24683 13.3326 7.35383C13.3533 7.39897 13.4178 7.63833 13.4758 7.88574C13.5339 8.13316 13.5906 8.33872 13.6019 8.34255C13.723 8.38364 14.1096 8.58604 14.2935 8.70458C14.4209 8.78671 14.5363 8.85389 14.55 8.85389C14.5638 8.85389 14.7804 8.79228 15.0314 8.71698C15.5437 8.56331 15.6481 8.55089 15.8428 8.62038C15.9034 8.64202 15.9513 8.66389 16 8.70287C16 8.68099 16 8.65901 16 8.63693C16 8.49961 16 8.36671 16 8.23807C16.0001 4.67495 16.0002 4.38229 15.8881 4.1418C15.8781 4.12028 15.8672 4.09917 15.8553 4.07618C15.8505 4.06691 15.8456 4.05734 15.8404 4.0473C15.7484 3.86686 15.4983 3.61102 15.3179 3.51286C15.2994 3.50278 15.2833 3.49328 15.268 3.48431C15.2555 3.47691 15.2435 3.46988 15.2314 3.4632C14.9993 3.33542 14.6969 3.33543 8.61201 3.33551C8.22603 3.33551 7.81678 3.33552 7.38281 3.33549L0 3.33502L0.000375 8.06158ZM12.768 13.9522C13.0421 13.8523 13.2991 13.6982 13.5219 13.4925C14.1884 12.8773 14.3725 11.9238 13.9785 11.1279C13.7501 10.6666 13.3999 10.3333 12.9118 10.1127C12.6953 10.0149 12.4794 9.95718 12.2262 9.92951C12.13 9.91899 12.0143 9.91146 11.9692 9.91279C11.1235 9.93762 10.3815 10.4006 10.0214 11.1279C9.62733 11.9238 9.81144 12.8773 10.4779 13.4925C10.6701 13.6699 10.8371 13.7796 11.085 13.8913C11.1407 13.9164 11.197 13.939 11.2538 13.9592C11.3674 13.9588 11.4796 13.9584 11.5902 13.958C10.6822 13.7689 10 12.9641 10 12C10 10.8954 10.8954 10 12 10C13.1046 10 14 10.8954 14 12C14 12.9577 13.3269 13.7582 12.4279 13.9541C12.5441 13.9535 12.6576 13.9528 12.768 13.9522Z" fill="#B6B6B6"/>
<path fill-rule="evenodd" clip-rule="evenodd" d="M11.2455 8.02244C11.1014 8.07118 10.9794 8.17649 10.9263 8.29787C10.9141 8.32584 10.866 8.51059 10.8194 8.70842C10.7728 8.90625 10.7333 9.06867 10.7317 9.06936C10.5503 9.14645 10.3001 9.27664 10.1613 9.36612C10.0615 9.43046 9.97084 9.48311 9.95985 9.48311C9.94888 9.48311 9.77559 9.43382 9.57477 9.37358C9.16489 9.25065 9.08142 9.24071 8.92565 9.2963C8.76537 9.35351 8.7159 9.41417 8.39054 9.95252C7.97806 10.635 8.00655 10.577 8.00627 10.7349C8.00591 10.9483 8.03594 10.9925 8.40154 11.3163L8.70421 11.5843L8.69206 11.6798C8.67637 11.8031 8.67637 12.2014 8.69206 12.3246L8.70421 12.4201L8.40443 12.6853C8.0602 12.9898 8.01558 13.0506 8.0022 13.2336C7.99616 13.3161 8.00189 13.3587 8.02764 13.4229C8.04591 13.4685 8.19983 13.7359 8.36969 14.0172C8.71133 14.583 8.76593 14.6512 8.92205 14.7069C9.08187 14.7639 9.16257 14.7545 9.57477 14.6309C9.77559 14.5707 9.94888 14.5214 9.95985 14.5214C9.97084 14.5214 10.0615 14.574 10.1613 14.6384C10.3001 14.7279 10.5503 14.858 10.7317 14.9351C10.7333 14.9358 10.7727 15.0982 10.8191 15.2961C10.8656 15.4939 10.9172 15.6853 10.9338 15.7214C10.9731 15.807 11.0851 15.9126 11.188 15.9613L11.2701 16H11.9999H12.7298L12.8118 15.9613C12.9148 15.9126 13.0268 15.807 13.0661 15.7214C13.0826 15.6853 13.1342 15.4938 13.1807 15.2959C13.2271 15.098 13.2725 14.9335 13.2815 14.9304C13.3784 14.8976 13.6877 14.7357 13.8348 14.6408C13.9367 14.5751 14.029 14.5214 14.04 14.5214C14.051 14.5214 14.2243 14.5707 14.4251 14.6309C14.835 14.7538 14.9185 14.7638 15.0742 14.7082C15.2345 14.651 15.284 14.5903 15.6094 14.052C16.0221 13.3691 15.9933 13.4277 15.9936 13.2685C15.994 13.0575 15.9608 13.0087 15.6002 12.6892L15.305 12.4277L15.3132 12.2814C15.3177 12.201 15.3214 12.0754 15.3214 12.0022C15.3214 11.9291 15.3177 11.8035 15.3132 11.723L15.305 11.5768L15.6002 11.3153C15.9395 11.0147 15.9842 10.9534 15.998 10.7701C16.009 10.6227 15.9874 10.577 15.6191 9.96816C15.2834 9.41314 15.2352 9.35374 15.0742 9.2963C14.9185 9.24071 14.835 9.25065 14.4251 9.37358C14.2243 9.43382 14.051 9.48311 14.04 9.48311C14.029 9.48311 13.9367 9.42936 13.8348 9.36366C13.6877 9.26883 13.3784 9.10692 13.2815 9.07404C13.2725 9.07097 13.2271 8.90653 13.1807 8.7086C13.1342 8.51066 13.0826 8.31918 13.0661 8.28307C13.0268 8.19746 12.9148 8.09188 12.8118 8.04323L12.7298 8.00449L12.0245 8.001C11.4147 7.99798 11.3093 8.00089 11.2455 8.02244ZM12.181 10.3436C12.3835 10.3657 12.5563 10.4119 12.7295 10.4902C13.1199 10.6666 13.4001 10.9333 13.5828 11.3023C13.898 11.939 13.7507 12.7019 13.2176 13.194C12.6894 13.6815 11.921 13.8072 11.268 13.513C11.0697 13.4237 10.9361 13.3359 10.7823 13.194C10.2492 12.7019 10.1019 11.939 10.4171 11.3023C10.7052 10.7204 11.2988 10.3501 11.9753 10.3302C12.0114 10.3292 12.104 10.3352 12.181 10.3436Z" fill="#00A2C6"/>
</svg>
