<svg width="148" height="147" viewBox="0 0 148 147" fill="none" xmlns="http://www.w3.org/2000/svg">
<path fill-rule="evenodd" clip-rule="evenodd" d="M10.5117 0.305103C8.11407 0.83482 6.23006 1.87358 4.44653 3.64935C1.18124 6.90029 0.75 8.59855 0.75 18.2115V25.4725H34.6436H68.5368L67.2684 23.6781C66.5707 22.6913 64.1552 18.3307 61.9003 13.9882C59.6456 9.64563 57.3685 5.49547 56.8403 4.76563C55.732 3.23391 53.5328 1.63011 51.2746 0.706483C49.7062 0.0650806 49.6551 0.0633574 30.8965 0.0096679C17.0228 -0.0296661 11.6768 0.0475662 10.5117 0.305103ZM0.753445 74.0658C0.756316 109.375 0.828381 117.76 1.14018 118.927C2.29895 123.265 5.73278 126.711 10.038 127.857C11.047 128.126 37.5949 128.271 66.2941 128.294C65.7982 127.42 65.464 126.801 65.3799 126.591C65.0842 125.854 65.0184 125.364 65.0878 124.417C65.2415 122.316 65.7538 121.618 69.7071 118.12L73.1499 115.074L73.0103 113.978C72.8302 112.563 72.8302 107.989 73.0103 106.573L73.1499 105.476L69.674 102.398C65.4752 98.6791 65.1303 98.1718 65.1345 95.7206C65.1352 95.3244 65.1201 95.0466 65.1455 94.7726C65.2365 93.7926 65.8457 92.8608 69.5476 86.7359C73.2842 80.5534 73.8523 79.8567 75.6931 79.1997C77.482 78.5613 78.4406 78.6754 83.1477 80.0872C85.4541 80.7791 87.4442 81.3451 87.5702 81.3451C87.6964 81.3451 88.7371 80.7404 89.8834 80.0015C91.4777 78.9739 94.3514 77.4788 96.4344 76.5935C96.4529 76.5856 96.9059 74.7202 97.441 72.4483C97.9762 70.1762 98.5289 68.0546 98.6694 67.7333C99.2786 66.3394 100.681 65.1299 102.335 64.5702C103.068 64.3227 104.278 64.2893 111.282 64.324L119.382 64.3641L120.324 64.809C121.506 65.3676 122.792 66.5802 123.243 67.5633C123.434 67.9781 124.026 70.1771 124.559 72.4503C125.093 74.7234 125.614 76.612 125.717 76.6472C126.83 77.0247 130.382 78.8842 132.072 79.9733C133.242 80.7279 134.302 81.3451 134.429 81.3451C134.555 81.3451 136.545 80.7791 138.851 80.0872C143.558 78.6754 144.517 78.5613 146.306 79.1997C146.863 79.3986 147.302 79.5994 147.75 79.9576C147.75 79.7565 147.75 79.5546 147.75 79.3518C147.75 78.0907 147.75 76.8701 147.75 75.6886C147.751 42.9512 147.751 40.2623 146.722 38.0527C146.63 37.855 146.53 37.6611 146.421 37.4499C146.377 37.3647 146.331 37.2768 146.284 37.1846C145.438 35.5268 143.14 33.1763 141.484 32.2744C141.313 32.1818 141.165 32.0945 141.025 32.0121C140.91 31.9441 140.8 31.8795 140.688 31.8181C138.556 30.6442 135.778 30.6442 79.873 30.645C76.3268 30.645 72.5668 30.6451 68.5796 30.6448L0.75 30.6405L0.753445 74.0658ZM118.056 128.185C120.575 127.268 122.936 125.852 124.983 123.963C131.106 118.311 132.798 109.55 129.177 102.237C127.079 97.9993 123.862 94.9368 119.377 92.9105C117.388 92.0117 115.405 91.4816 113.079 91.2274C112.194 91.1307 111.131 91.0615 110.717 91.0737C102.947 91.3019 96.1296 95.5551 92.8213 102.237C89.2011 109.55 90.8926 118.311 97.0159 123.963C98.7815 125.592 100.316 126.6 102.594 127.626C103.105 127.857 103.622 128.064 104.144 128.25C105.188 128.247 106.219 128.243 107.235 128.239C98.8924 126.502 92.625 119.108 92.625 110.25C92.625 100.102 100.852 91.875 111 91.875C121.148 91.875 129.375 100.102 129.375 110.25C129.375 119.049 123.191 126.403 114.931 128.203C115.999 128.198 117.042 128.192 118.056 128.185Z" fill="#B6B6B6"/>
<path fill-rule="evenodd" clip-rule="evenodd" d="M104.068 73.7061C102.744 74.1539 101.623 75.1215 101.136 76.2367C101.023 76.4937 100.581 78.191 100.153 80.0086C99.7247 81.8261 99.3623 83.3185 99.3475 83.3248C97.6812 84.0331 95.3822 85.2291 94.1067 86.0512C93.1897 86.6424 92.3571 87.1261 92.2562 87.1261C92.1553 87.1261 90.5633 86.6733 88.7182 86.1198C84.9525 84.9903 84.1856 84.899 82.7544 85.4098C81.2819 85.9354 80.8274 86.4927 77.838 91.4387C74.0484 97.7089 74.3101 97.1761 74.3076 98.6265C74.3043 100.587 74.5802 100.993 77.9392 103.968L80.7199 106.431L80.6083 107.309C80.4642 108.441 80.4642 112.1 80.6083 113.232L80.7199 114.109L77.9657 116.546C74.8031 119.344 74.3932 119.903 74.2702 121.583C74.2148 122.342 74.2673 122.733 74.5039 123.323C74.6718 123.742 76.0859 126.199 77.6465 128.783C80.7853 133.981 81.287 134.608 82.7213 135.12C84.1897 135.644 84.9311 135.557 88.7182 134.421C90.5633 133.868 92.1553 133.415 92.2562 133.415C92.3571 133.415 93.1897 133.899 94.1067 134.49C95.3822 135.312 97.6812 136.508 99.3475 137.216C99.3623 137.223 99.7238 138.715 100.151 140.533C100.578 142.35 101.052 144.109 101.205 144.441C101.566 145.227 102.594 146.197 103.54 146.644L104.294 147H111H117.705L118.459 146.644C119.405 146.197 120.433 145.227 120.794 144.441C120.947 144.109 121.421 142.35 121.847 140.531C122.274 138.713 122.691 137.202 122.774 137.173C123.664 136.871 126.506 135.384 127.857 134.513C128.793 133.909 129.642 133.415 129.743 133.415C129.844 133.415 131.436 133.868 133.281 134.421C137.047 135.551 137.813 135.642 139.245 135.131C140.717 134.606 141.172 134.049 144.161 129.103C147.953 122.828 147.689 123.367 147.691 121.905C147.695 119.966 147.39 119.518 144.076 116.582L141.364 114.179L141.44 112.836C141.481 112.097 141.515 110.943 141.515 110.271C141.515 109.599 141.481 108.444 141.44 107.705L141.364 106.362L144.076 103.959C147.194 101.197 147.605 100.635 147.731 98.9506C147.833 97.5965 147.634 97.1763 144.25 91.5825C141.166 86.4832 140.723 85.9375 139.245 85.4098C137.813 84.899 137.047 84.9903 133.281 86.1198C131.436 86.6733 129.844 87.1261 129.743 87.1261C129.642 87.1261 128.793 86.6323 127.857 86.0287C126.506 85.1574 123.664 83.6698 122.774 83.3678C122.691 83.3396 122.274 81.8287 121.847 80.0102C121.421 78.1917 120.947 76.4324 120.794 76.1007C120.433 75.3142 119.405 74.3441 118.459 73.8972L117.705 73.5412L111.226 73.5092C105.622 73.4814 104.654 73.5082 104.068 73.7061ZM112.663 95.0319C114.524 95.2353 116.111 95.6594 117.702 96.3784C121.289 97.9994 123.863 100.449 125.542 103.84C128.438 109.69 127.085 116.698 122.186 121.22C117.334 125.699 110.275 126.854 104.275 124.151C102.453 123.33 101.225 122.524 99.8127 121.22C94.9141 116.698 93.5609 109.69 96.4571 103.84C99.1037 98.4941 104.558 95.0915 110.773 94.909C111.105 94.8992 111.955 94.9545 112.663 95.0319Z" fill="#00A2C6"/>
</svg>
