<svg width="148" height="147" viewBox="0 0 148 147" fill="none" xmlns="http://www.w3.org/2000/svg">
<g clip-path="url(#clip0_129_104)">
<path fill-rule="evenodd" clip-rule="evenodd" d="M10.4492 9.4926C8.05157 10.0223 6.16756 11.0611 4.38403 12.8369C1.11874 16.0878 0.6875 17.786 0.6875 27.399V34.66H34.581H68.4743L67.2059 32.8656C66.5082 31.8788 64.0927 27.5182 61.8378 23.1757C59.5831 18.8331 57.306 14.683 56.7778 13.9531C55.6695 12.4214 53.4703 10.8176 51.2121 9.89398C49.6437 9.25258 49.5926 9.25086 30.834 9.19717C16.9603 9.15783 11.6143 9.23507 10.4492 9.4926ZM0.690945 83.2533C0.693816 118.562 0.765881 126.947 1.07768 128.114C2.23646 132.452 5.67028 135.898 9.97549 137.045C12.1791 137.631 136.196 137.631 138.4 137.045C142.834 135.864 146.434 132.129 147.365 127.741C147.594 126.659 147.688 115.345 147.688 88.5393C147.688 47.9457 147.736 49.3405 146.222 46.3721C145.376 44.7143 143.078 42.3638 141.421 41.4619C138.255 39.739 142.631 39.8369 68.5171 39.8323L0.6875 39.828L0.690945 83.2533Z" fill="#B6B6B6"/>
</g>
<defs>
<clipPath id="clip0_129_104">
<rect width="147" height="147" fill="white" transform="translate(0.6875)"/>
</clipPath>
</defs>
</svg>
