<svg width="16" height="16" viewBox="0 0 16 16" fill="none" xmlns="http://www.w3.org/2000/svg">
<g clip-path="url(#clip0_129_104)">
<path fill-rule="evenodd" clip-rule="evenodd" d="M1.0625 1.03321C0.801531 1.09086 0.596469 1.20393 0.402344 1.39721C0.0469375 1.75105 0 1.9359 0 2.98221V3.77252H3.68909H7.37816L7.24009 3.57721C7.16416 3.4698 6.90125 2.99518 6.65581 2.52252C6.41041 2.04986 6.16256 1.59815 6.10506 1.51871C5.98444 1.35199 5.74506 1.17743 5.49928 1.0769C5.32856 1.00708 5.323 1.0069 3.28125 1.00105C1.77119 0.996771 1.18931 1.00518 1.0625 1.03321ZM0.000375 9.06158C0.0006875 12.9047 0.00853125 13.8174 0.0424687 13.9444C0.168594 14.4166 0.542344 14.7916 1.01094 14.9164C1.25078 14.9803 14.7492 14.9803 14.9891 14.9164C15.4718 14.7879 15.8635 14.3814 15.9649 13.9038C15.9898 13.786 16 12.5546 16 9.63693C16 5.21858 16.0053 5.3704 15.8404 5.0473C15.7484 4.86686 15.4983 4.61102 15.3179 4.51286C14.9734 4.32533 15.4497 4.33599 7.38281 4.33549L0 4.33502L0.000375 9.06158Z" fill="#B6B6B6"/>
</g>
<defs>
<clipPath id="clip0_129_104">
<rect width="16" height="16" fill="white"/>
</clipPath>
</defs>
</svg>
