<svg width="147" height="147" viewBox="0 0 147 147" fill="none" xmlns="http://www.w3.org/2000/svg">
<g clip-path="url(#clip0_129_102)">
<path fill-rule="evenodd" clip-rule="evenodd" d="M81.4775 37.0592C79.4917 37.7309 77.8093 39.1823 77.0783 40.855C76.9096 41.2405 76.2464 43.7865 75.6043 46.513C74.9621 49.2392 74.4184 51.4777 74.3963 51.4872C71.8967 52.5496 68.4482 54.3436 66.535 55.5768C65.1596 56.4635 63.9107 57.1891 63.7592 57.1891C63.608 57.1891 61.2199 56.5099 58.4522 55.6797C52.8037 53.9855 51.6534 53.8486 49.5067 54.6147C47.2978 55.403 46.6161 56.2391 42.1321 63.6581C36.4476 73.0633 36.8402 72.2642 36.8364 74.4397C36.8314 77.3812 37.2453 77.9899 42.2837 82.4524L46.4549 86.1464L46.2874 87.4628C46.0713 89.1614 46.0713 94.6501 46.2874 96.3482L46.4549 97.664L42.3235 101.319C37.5796 105.516 36.9648 106.354 36.7803 108.875C36.6971 110.012 36.776 110.599 37.1309 111.484C37.3827 112.112 39.5039 115.798 41.8448 119.675C46.553 127.472 47.3055 128.412 49.4569 129.179C51.6595 129.965 52.7716 129.836 58.4522 128.132C61.2199 127.302 63.608 126.623 63.7592 126.623C63.9107 126.623 65.1596 127.348 66.535 128.235C68.4482 129.468 71.8967 131.262 74.3963 132.325C74.4184 132.334 74.9607 134.573 75.6013 137.299C76.2419 140.025 76.9533 142.663 77.1818 143.161C77.7236 144.341 79.2661 145.796 80.6852 146.466L81.8154 147H91.8743H101.933L103.063 146.466C104.482 145.796 106.025 144.341 106.567 143.161C106.795 142.663 107.506 140.024 108.146 137.297C108.786 134.569 109.412 132.303 109.536 132.26C110.871 131.807 115.133 129.576 117.161 128.269C118.565 127.363 119.838 126.623 119.989 126.623C120.14 126.623 122.529 127.302 125.296 128.132C130.945 129.826 132.095 129.963 134.242 129.197C136.451 128.409 137.132 127.573 141.616 120.154C147.305 110.742 146.908 111.55 146.912 109.357C146.917 106.449 146.46 105.776 141.49 101.373L137.422 97.7688L137.535 95.7537C137.597 94.6455 137.648 92.914 137.648 91.9059C137.648 90.8979 137.597 89.1663 137.535 88.0582L137.422 86.0431L141.49 82.439C146.166 78.2959 146.782 77.4519 146.972 74.926C147.124 72.8947 146.826 72.2644 141.751 63.8737C137.124 56.2248 136.46 55.4063 134.242 54.6147C132.095 53.8486 130.945 53.9855 125.296 55.6797C122.529 56.5099 120.14 57.1891 119.989 57.1891C119.838 57.1891 118.565 56.4484 117.161 55.543C115.133 54.236 110.871 52.0047 109.536 51.5516C109.412 51.5094 108.786 49.2431 108.146 46.5153C107.506 43.7876 106.795 41.1487 106.567 40.651C106.025 39.4713 104.482 38.0162 103.063 37.3458L101.933 36.8119L92.2133 36.7638C83.8087 36.7222 82.3561 36.7623 81.4775 37.0592ZM94.3693 69.0478C97.1607 69.3529 99.5409 69.9891 101.928 71.0677C107.309 73.4991 111.17 77.1742 113.688 82.2598C118.032 91.0346 116.002 101.548 108.654 108.33C101.376 115.048 90.7868 116.781 81.7876 112.727C79.0543 111.495 77.2128 110.285 75.0941 108.33C67.7462 101.548 65.7163 91.0346 70.0606 82.2598C74.0306 74.2411 82.2119 69.1373 91.5352 68.8635C92.0325 68.8488 93.3078 68.9318 94.3693 69.0478Z" fill="#B6B6B6"/>
<path fill-rule="evenodd" clip-rule="evenodd" d="M22.3637 0.154601C21.3709 0.490449 20.5296 1.21616 20.1641 2.05249C20.0798 2.24526 19.7482 3.51825 19.4271 4.88148C19.106 6.2446 18.8342 7.36384 18.8231 7.36858C17.5734 7.89979 15.8491 8.79682 14.8925 9.41342C14.2048 9.85676 13.5803 10.2196 13.5046 10.2196C13.429 10.2196 12.2349 9.87994 10.8511 9.46485C8.02685 8.61774 7.45169 8.54928 6.37833 8.93235C5.2739 9.32652 4.93303 9.74453 2.69104 13.454C-0.151208 18.1567 0.0451087 17.7571 0.0431874 18.8449C0.0407009 20.3156 0.247642 20.6199 2.76687 22.8512L4.85244 24.6982L4.76869 25.3564C4.66065 26.2057 4.66065 28.95 4.76869 29.7991L4.85244 30.457L2.78676 32.2845C0.4148 34.383 0.107383 34.802 0.0151582 36.0625C-0.0264334 36.6312 0.0130109 36.9247 0.190453 37.3671C0.316358 37.6812 1.37694 39.524 2.54739 41.4624C4.90149 45.361 5.27774 45.8308 6.35347 46.2147C7.45474 46.6077 8.0108 46.543 10.8511 45.6911C12.2349 45.276 13.429 44.9364 13.5046 44.9364C13.5803 44.9364 14.2048 45.2992 14.8925 45.7425C15.8491 46.3591 17.5734 47.2561 18.8231 47.7874C18.8342 47.7921 19.1054 48.9113 19.4257 50.2745C19.746 51.6377 20.1016 52.9566 20.2159 53.2054C20.4868 53.7953 21.2581 54.5228 21.9676 54.858L22.5327 55.125H27.5621H32.5915L33.1567 54.858C33.8662 54.5228 34.6374 53.7953 34.9084 53.2054C35.0226 52.9566 35.3781 51.6371 35.698 50.2733C36.0181 48.9094 36.3308 47.7763 36.393 47.7551C37.0605 47.5286 39.1917 46.4129 40.2054 45.7594C40.9076 45.3067 41.5439 44.9364 41.6196 44.9364C41.6952 44.9364 42.8893 45.276 44.2731 45.6911C47.0974 46.5382 47.6726 46.6067 48.7459 46.2236C49.8504 45.8294 50.1912 45.4114 52.4332 41.7019C55.2774 36.9961 55.0792 37.4001 55.0811 36.3034C55.0836 34.8494 54.8551 34.5131 52.3698 32.3114L50.3358 30.5094L50.3923 29.5018C50.4234 28.9478 50.4488 28.082 50.4488 27.578C50.4488 27.0739 50.4234 26.2082 50.3923 25.6541L50.3358 24.6466L52.3698 22.8445C54.7082 20.7729 55.0161 20.3509 55.1109 19.088C55.1871 18.0724 55.0382 17.7572 52.5004 13.5619C50.1869 9.73741 49.855 9.32814 48.7459 8.93235C47.6726 8.54928 47.0974 8.61774 44.2731 9.46485C42.8893 9.87994 41.6952 10.2196 41.6196 10.2196C41.5439 10.2196 40.9076 9.84922 40.2054 9.3965C39.1917 8.74302 37.0605 7.62734 36.393 7.40082C36.3308 7.37969 36.0181 6.24654 35.698 4.88266C35.3781 3.51879 35.0226 2.19934 34.9084 1.9505C34.6374 1.36063 33.8662 0.633089 33.1567 0.297889L32.5915 0.0309361L27.7317 0.0068931C23.5293 -0.0139154 22.8031 0.00613838 22.3637 0.154601ZM28.8097 16.1489C30.2053 16.3015 31.3955 16.6195 32.5889 17.1588C35.2794 18.3746 37.21 20.2121 38.469 22.7549C40.6411 27.1423 39.6262 32.3989 35.9522 35.79C32.313 39.149 27.0184 40.0154 22.5188 37.9883C21.1522 37.3725 20.2314 36.7677 19.172 35.79C15.4981 32.3989 14.4832 27.1423 16.6553 22.7549C18.6403 18.7456 22.7309 16.1937 27.3926 16.0567C27.6412 16.0494 28.2789 16.0909 28.8097 16.1489Z" fill="#B6B6B6"/>
</g>
<defs>
<clipPath id="clip0_129_102">
<rect width="147" height="147" fill="white"/>
</clipPath>
</defs>
</svg>
