<svg width="16" height="16" viewBox="0 0 16 16" fill="none" xmlns="http://www.w3.org/2000/svg">
<g clip-path="url(#clip0_129_102)">
<path fill-rule="evenodd" clip-rule="evenodd" d="M8.8683 4.03365C8.65216 4.10676 8.46904 4.26474 8.38947 4.4468C8.37112 4.48877 8.29893 4.76588 8.22904 5.06263C8.15914 5.35937 8.09997 5.60301 8.09756 5.60404C7.82549 5.71968 7.45015 5.91495 7.24191 6.04918C7.0922 6.14569 6.95627 6.22467 6.93978 6.22467C6.92332 6.22467 6.66339 6.15074 6.36215 6.06038C5.74734 5.87597 5.62214 5.86107 5.38848 5.94446C5.14806 6.03026 5.07386 6.12126 4.5858 6.92877C3.96708 7.95247 4.00982 7.86549 4.0094 8.10228C4.00886 8.42244 4.05391 8.4887 4.60231 8.97441L5.05631 9.37648L5.03808 9.51976C5.01456 9.70464 5.01456 10.302 5.03808 10.4869L5.05631 10.6301L4.60664 11.0279C4.0903 11.4847 4.02338 11.5759 4.0033 11.8503C3.99425 11.9741 4.00283 12.038 4.04146 12.1343C4.06887 12.2027 4.29974 12.6039 4.55453 13.0258C5.06699 13.8745 5.1489 13.9768 5.38307 14.0604C5.6228 14.1459 5.74385 14.1318 6.36215 13.9464C6.66339 13.856 6.92332 13.7821 6.93978 13.7821C6.95627 13.7821 7.0922 13.861 7.24191 13.9576C7.45015 14.0918 7.82549 14.2871 8.09756 14.4027C8.09997 14.4037 8.15899 14.6474 8.22872 14.9441C8.29844 15.2409 8.37587 15.528 8.40074 15.5821C8.45971 15.7105 8.62761 15.8689 8.78206 15.9419L8.90508 16H9.99992H11.0948L11.2178 15.9419C11.3722 15.8689 11.5401 15.7105 11.5991 15.5821C11.624 15.528 11.7013 15.2407 11.771 14.9438C11.8407 14.6469 11.9088 14.4003 11.9223 14.3957C12.0676 14.3464 12.5315 14.1035 12.7522 13.9612C12.9051 13.8627 13.0436 13.7821 13.0601 13.7821C13.0765 13.7821 13.3364 13.856 13.6377 13.9464C14.2525 14.1308 14.3777 14.1457 14.6114 14.0623C14.8518 13.9765 14.926 13.8855 15.414 13.078C16.0332 12.0536 15.99 12.1415 15.9904 11.9028C15.991 11.5863 15.9413 11.5131 15.4002 11.0338L14.9575 10.6415L14.9698 10.4222C14.9765 10.3016 14.9821 10.1131 14.9821 10.0034C14.9821 9.89364 14.9765 9.70518 14.9698 9.58457L14.9575 9.36524L15.4002 8.97296C15.9093 8.522 15.9763 8.43014 15.9969 8.15521C16.0135 7.93412 15.9811 7.86551 15.4286 6.95224C14.925 6.11971 14.8528 6.03062 14.6114 5.94446C14.3777 5.86107 14.2525 5.87597 13.6377 6.06038C13.3364 6.15074 13.0765 6.22467 13.0601 6.22467C13.0436 6.22467 12.9051 6.14405 12.7522 6.0455C12.5315 5.90324 12.0676 5.66037 11.9223 5.61106C11.9088 5.60646 11.8407 5.35979 11.771 5.06289C11.7013 4.76599 11.624 4.47877 11.5991 4.4246C11.5401 4.29619 11.3722 4.13782 11.2178 4.06485L11.0948 4.00673L10.0368 4.0015C9.12203 3.99697 8.96393 4.00134 8.8683 4.03365ZM10.2715 7.51541C10.5753 7.54862 10.8344 7.61786 11.0942 7.73526C11.6799 7.9999 12.1001 8.39991 12.3742 8.95345C12.847 9.90852 12.6261 11.0528 11.8263 11.791C11.0341 12.5222 9.88155 12.7108 8.90205 12.2696C8.60455 12.1355 8.40411 12.0038 8.17351 11.791C7.37373 11.0528 7.1528 9.90852 7.62564 8.95345C8.05775 8.08067 8.94823 7.52515 9.96301 7.49534C10.0171 7.49375 10.156 7.50278 10.2715 7.51541Z" fill="#B6B6B6"/>
<path fill-rule="evenodd" clip-rule="evenodd" d="M2.43415 0.0168273C2.32608 0.0533822 2.23452 0.132371 2.19474 0.2234C2.18556 0.244383 2.14947 0.382939 2.11452 0.531317C2.07957 0.679684 2.04998 0.801506 2.04878 0.802022C1.91275 0.859841 1.72507 0.957477 1.62095 1.02459C1.5461 1.07284 1.47813 1.11233 1.46989 1.11233C1.46166 1.11233 1.3317 1.07537 1.18107 1.03019C0.873671 0.937985 0.811068 0.930533 0.69424 0.972228C0.574029 1.01513 0.536928 1.06063 0.292902 1.46439C-0.016458 1.97624 0.00490979 1.93275 0.00470067 2.05114C0.00443003 2.21122 0.0269542 2.24435 0.301156 2.48721L0.528157 2.68824L0.519041 2.75988C0.507281 2.85232 0.507281 3.15102 0.519041 3.24344L0.528157 3.31505L0.303321 3.51396C0.0451482 3.74237 0.011688 3.78797 0.00164988 3.92517C-0.0028771 3.98707 0.00141615 4.01901 0.0207296 4.06717C0.0344336 4.10136 0.149871 4.30193 0.277266 4.51292C0.533496 4.93725 0.574448 4.98839 0.691534 5.03018C0.8114 5.07295 0.871924 5.06591 1.18107 4.97318C1.3317 4.928 1.46166 4.89103 1.46989 4.89103C1.47813 4.89103 1.5461 4.93052 1.62095 4.97878C1.72507 5.04589 1.91275 5.14353 2.04878 5.20134C2.04998 5.20186 2.07949 5.32368 2.11436 5.47205C2.14922 5.62043 2.18793 5.76398 2.20037 5.79107C2.22986 5.85527 2.3138 5.93446 2.39103 5.97094L2.45254 6H2.99996H3.54738L3.60889 5.97094C3.68612 5.93446 3.77006 5.85527 3.79955 5.79107C3.81199 5.76398 3.85067 5.62037 3.8855 5.47192C3.92034 5.32347 3.95438 5.20014 3.96114 5.19784C4.0338 5.17318 4.26577 5.05175 4.3761 4.98062C4.45253 4.93134 4.52179 4.89103 4.53003 4.89103C4.53826 4.89103 4.66822 4.928 4.81884 4.97318C5.12625 5.06538 5.18885 5.07283 5.30568 5.03114C5.42589 4.98824 5.46299 4.94274 5.70702 4.53898C6.01659 4.02679 5.99501 4.07076 5.99522 3.95139C5.99549 3.79313 5.97063 3.75653 5.70012 3.51689L5.47873 3.32075L5.48488 3.21108C5.48826 3.15078 5.49103 3.05655 5.49103 3.00168C5.49103 2.94682 5.48826 2.85259 5.48488 2.79228L5.47873 2.68262L5.70012 2.48648C5.95464 2.261 5.98815 2.21507 5.99847 2.0776C6.00676 1.96706 5.99056 1.93276 5.71432 1.47612C5.46252 1.05985 5.42639 1.01531 5.30568 0.972228C5.18885 0.930533 5.12625 0.937985 4.81884 1.03019C4.66822 1.07537 4.53826 1.11233 4.53003 1.11233C4.52179 1.11233 4.45253 1.07202 4.3761 1.02275C4.26577 0.951621 4.0338 0.830187 3.96114 0.805531C3.95438 0.803231 3.92034 0.679895 3.8855 0.531446C3.85067 0.382997 3.81199 0.239383 3.79955 0.212299C3.77006 0.148096 3.68612 0.0689077 3.60889 0.0324233L3.54738 0.00336719L3.01841 0.000750269C2.56102 -0.0015146 2.48197 0.000668123 2.43415 0.0168273ZM3.13574 1.7577C3.28766 1.77431 3.41719 1.80893 3.5471 1.86763C3.83994 1.99995 4.05007 2.19995 4.1871 2.47673C4.42352 2.95426 4.31305 3.52641 3.91317 3.89551C3.51706 4.26112 2.94078 4.35542 2.45103 4.13478C2.30228 4.06776 2.20206 4.00192 2.08675 3.89551C1.68687 3.52641 1.5764 2.95426 1.81282 2.47673C2.02887 2.04033 2.47412 1.76258 2.98151 1.74767C3.00857 1.74687 3.07798 1.75139 3.13574 1.7577Z" fill="#B6B6B6"/>
</g>
<defs>
<clipPath id="clip0_129_102">
<rect width="16" height="16" fill="white"/>
</clipPath>
</defs>
</svg>
